<?xml version="1.0" encoding="utf-8"?>
<!-- Generator: Adobe Illustrator 12.0.0, SVG Export Plug-In . SVG Version: 6.00 Build 51448)  -->
<!DOCTYPE svg PUBLIC "-//W3C//DTD SVG 1.1//EN" "http://www.w3.org/Graphics/SVG/1.1/DTD/svg11.dtd" [
	<!ENTITY ns_svg "http://www.w3.org/2000/svg">
	<!ENTITY ns_xlink "http://www.w3.org/1999/xlink">
]>
<svg  version="1.1" id="Layer_1" xmlns="&ns_svg;" xmlns:xlink="&ns_xlink;" width="455.738" height="158.928"
	 viewBox="0 0 455.738 158.928" overflow="visible" enable-background="new 0 0 455.738 158.928" xml:space="preserve">
<path fill="#F4B400" stroke="#262626" d="M429.292,93.035c-5.333-2.667-52.667-26.667-92-31.333
	c-39.333-4.667-42.423-2.488-50.673-6.738s-25.291-37.416-66-43.25c-24.938-1.188-10.938,7.75,2,23.667
	c13.611,16.747,8.625,22.583-9.994,27.987c-16.333,4.667-70.5,24.667-87.5,20.667s-45.5-25.5-60-26s12.834,17.333,16.167,29
	s-3.876,24.646-12.667,33.667c-8.791,9.021,17,2.667,27.333-3.333s16-12.667,39-7.667s63.125,16.521,78.125,18.083
	c14.923,1.555,30.541,5.584,20.541,14.917s-28.666,11.333-17.666,14.667s45.667-2,50.333-5s23.666-12,38.333-10.667
	s69.333-3.334,87.667-6.667s88.666-13,53-32C445.292,103.035,434.625,95.701,429.292,93.035z"/>
<circle fill="#FFFFFF" stroke="#262626" cx="411.334" cy="82.785" r="11.5"/>
<circle fill="#FFFFFF" stroke="#262626" cx="393.584" cy="88.285" r="11.5"/>
<circle fill="#262626" cx="400.334" cy="92.785" r="2"/>
<circle fill="#262626" cx="418.334" cy="84.535" r="2"/>
<path fill="none" stroke="#262626" d="M441.334,124.118c0,0-34.667,0.75-65.75-10.083"/>
</svg>
